<svg xmlns="http://www.w3.org/2000/svg" xmlns:xlink="http://www.w3.org/1999/xlink" viewBox="0 0 100 100" role="img" aria-label="Atlas Mind"><defs><radialGradient id="bg_v5" cx="50%" cy="40%" r="80%"><stop offset="0%" stop-color="#16243f"/><stop offset="55%" stop-color="#0d1626"/><stop offset="100%" stop-color="#0b1220"/></radialGradient><radialGradient id="wispA_v5" cx="28%" cy="26%" r="46%"><stop offset="0%" stop-color="#3a2f6b" stop-opacity="0.55"/><stop offset="100%" stop-color="#3a2f6b" stop-opacity="0"/></radialGradient><radialGradient id="wispB_v5" cx="76%" cy="32%" r="44%"><stop offset="0%" stop-color="#1f6b6b" stop-opacity="0.42"/><stop offset="100%" stop-color="#1f6b6b" stop-opacity="0"/></radialGradient><radialGradient id="wispC_v5" cx="68%" cy="80%" r="50%"><stop offset="0%" stop-color="#6b2f5a" stop-opacity="0.4"/><stop offset="100%" stop-color="#6b2f5a" stop-opacity="0"/></radialGradient><radialGradient id="wispD_v5" cx="22%" cy="82%" r="40%"><stop offset="0%" stop-color="#9b7fe0" stop-opacity="0.22"/><stop offset="100%" stop-color="#9b7fe0" stop-opacity="0"/></radialGradient><radialGradient id="orb_v5" cx="40%" cy="34%" r="72%"><stop offset="0%" stop-color="#fff7e6"/><stop offset="30%" stop-color="#f2b65a"/><stop offset="70%" stop-color="#e8941c"/><stop offset="100%" stop-color="#b86f12"/></radialGradient><radialGradient id="halo_v5" cx="50%" cy="50%" r="50%"><stop offset="0%" stop-color="#f2b65a" stop-opacity="0.6"/><stop offset="52%" stop-color="#e8941c" stop-opacity="0.2"/><stop offset="100%" stop-color="#e8941c" stop-opacity="0"/></radialGradient><radialGradient id="planA_v5" cx="38%" cy="34%" r="70%"><stop offset="0%" stop-color="#bfeef6"/><stop offset="60%" stop-color="#5ec8d8"/><stop offset="100%" stop-color="#2f8a99"/></radialGradient><radialGradient id="planB_v5" cx="38%" cy="34%" r="70%"><stop offset="0%" stop-color="#d8ccff"/><stop offset="60%" stop-color="#9b7fe0"/><stop offset="100%" stop-color="#5b46a0"/></radialGradient><filter id="glow_v5" x="-60%" y="-60%" width="220%" height="220%"><feGaussianBlur stdDeviation="1.7" result="b"/><feMerge><feMergeNode in="b"/><feMergeNode in="SourceGraphic"/></feMerge></filter><clipPath id="clip_v5"><rect x="0" y="0" width="100" height="100" rx="24" ry="24"/></clipPath><path id="orbOuter_v5" d="M 88,50 A 38,20 0 1,1 12,50 A 38,20 0 1,1 88,50 Z" fill="none"/><path id="orbInner_v5" d="M 77,50 A 27,15 0 1,1 23,50 A 27,15 0 1,1 77,50 Z" fill="none"/></defs><g clip-path="url(#clip_v5)"><rect width="100" height="100" fill="#0b1220"/><rect width="100" height="100" fill="url(#bg_v5)"/><rect width="100" height="100" fill="url(#wispA_v5)"/><rect width="100" height="100" fill="url(#wispB_v5)"/><rect width="100" height="100" fill="url(#wispC_v5)"/><rect width="100" height="100" fill="url(#wispD_v5)"/><circle class="cst-star" style="animation-delay:0s" cx="17" cy="20" r="0.9" fill="#cfe6ff" opacity="0.5"/><circle cx="84" cy="18" r="0.8" fill="#cfe6ff" opacity="0.45"/><circle class="cst-star" style="animation-delay:1.4s" cx="12" cy="46" r="0.7" fill="#cfe6ff" opacity="0.5"/><circle cx="88" cy="58" r="0.7" fill="#cfe6ff" opacity="0.4"/><circle class="cst-star" style="animation-delay:0.7s" cx="28" cy="12" r="0.6" fill="#cfe6ff" opacity="0.5"/><circle cx="73" cy="11" r="0.55" fill="#cfe6ff" opacity="0.4"/><circle class="cst-star" style="animation-delay:2.1s" cx="20" cy="82" r="0.7" fill="#cfe6ff" opacity="0.5"/><circle cx="82" cy="84" r="0.6" fill="#cfe6ff" opacity="0.4"/><circle class="cst-star" style="animation-delay:1.1s" cx="50" cy="8" r="0.85" fill="#cfe6ff" opacity="0.5"/><g class="cst-float"><animateTransform attributeName="transform" type="translate" values="0 0;0 -3.5;0 0" dur="5s" repeatCount="indefinite"/><circle class="cst-pulse" cx="50" cy="50" r="30" fill="url(#halo_v5)" style="transform-origin:50px 50px"><animate attributeName="r" values="29;32;29" dur="4.5s" repeatCount="indefinite"/><animate attributeName="opacity" values="0.7;1;0.7" dur="4.5s" repeatCount="indefinite"/></circle><g transform="rotate(-17 50 50)"><g fill="none" stroke-linecap="round"><ellipse cx="50" cy="50" rx="38" ry="20" stroke="#9b7fe0" stroke-opacity="0.46" stroke-width="1.15"/><ellipse cx="50" cy="50" rx="27" ry="15" stroke="#5ec8d8" stroke-opacity="0.5" stroke-width="1.15"/></g><g filter="url(#glow_v5)"><circle cx="0" cy="0" r="2.7" fill="url(#planA_v5)"><animateMotion dur="17s" begin="-7s" repeatCount="indefinite" rotate="0"><mpath xlink:href="#orbInner_v5"/></animateMotion><animate attributeName="opacity" dur="17s" begin="-7s" repeatCount="indefinite" calcMode="discrete" values="0;1" keyTimes="0;0.5"/></circle></g></g><g filter="url(#glow_v5)"><circle cx="50" cy="50" r="15" fill="url(#orb_v5)" stroke="#f2b65a" stroke-opacity="0.6" stroke-width="0.7"/><circle cx="45" cy="44.6" r="4.6" fill="#fffaf0" opacity="0.85"/></g><g transform="rotate(-17 50 50)"><g filter="url(#glow_v5)"><circle cx="0" cy="0" r="2.7" fill="url(#planA_v5)"><animateMotion dur="17s" begin="-7s" repeatCount="indefinite" rotate="0"><mpath xlink:href="#orbInner_v5"/></animateMotion><animate attributeName="opacity" dur="17s" begin="-7s" repeatCount="indefinite" calcMode="discrete" values="1;0" keyTimes="0;0.5"/></circle></g><g filter="url(#glow_v5)"><circle cx="0" cy="0" r="3.1" fill="url(#planB_v5)"><animateMotion dur="30s" begin="0s" repeatCount="indefinite" rotate="0"><mpath xlink:href="#orbOuter_v5"/></animateMotion></circle></g></g></g></g><rect x="0.6" y="0.6" width="98.8" height="98.8" rx="23.5" ry="23.5" fill="none" stroke="#e8941c" stroke-opacity="0.4" stroke-width="0.8"/></svg>