<svg xmlns="http://www.w3.org/2000/svg" viewBox="0 0 100 100" role="img" aria-label="Atlas Mind"><defs><radialGradient id="bg_T" cx="50%" cy="34%" r="78%"><stop offset="0%" stop-color="#15233c"/><stop offset="52%" stop-color="#0d1626"/><stop offset="100%" stop-color="#0b1220"/></radialGradient><radialGradient id="orb_T" cx="40%" cy="34%" r="70%"><stop offset="0%" stop-color="#fff7e6"/><stop offset="30%" stop-color="#f2b65a"/><stop offset="70%" stop-color="#e8941c"/><stop offset="100%" stop-color="#b86f12"/></radialGradient><radialGradient id="halo_T" cx="50%" cy="50%" r="50%"><stop offset="0%" stop-color="#f2b65a" stop-opacity="0.55"/><stop offset="55%" stop-color="#e8941c" stop-opacity="0.18"/><stop offset="100%" stop-color="#e8941c" stop-opacity="0"/></radialGradient><linearGradient id="arc_T" x1="0" y1="0" x2="1" y2="1"><stop offset="0%" stop-color="#5ec8d8" stop-opacity="0.9"/><stop offset="50%" stop-color="#e8941c"/><stop offset="100%" stop-color="#4aa3d6" stop-opacity="0.9"/></linearGradient><filter id="glow_T" x="-60%" y="-60%" width="220%" height="220%"><feGaussianBlur stdDeviation="2" result="b"/><feMerge><feMergeNode in="b"/><feMergeNode in="SourceGraphic"/></feMerge></filter><clipPath id="clip_T"><rect x="0" y="0" width="100" height="100" rx="24" ry="24"/></clipPath></defs><g clip-path="url(#clip_T)"><rect width="100" height="100" fill="#0b1220"/><rect width="100" height="100" fill="url(#bg_T)"/><circle class="cst-star" style="animation-delay:0s" cx="18" cy="22" r="0.9" fill="#cfe6ff" opacity="0.5"/><circle cx="82" cy="22" r="0.9" fill="#cfe6ff" opacity="0.5"/><circle class="cst-star" style="animation-delay:1.6s" cx="14" cy="50" r="0.7" fill="#cfe6ff" opacity="0.5"/><circle cx="86" cy="50" r="0.7" fill="#cfe6ff" opacity="0.5"/><circle class="cst-star" style="animation-delay:0.8s" cx="30" cy="14" r="0.6" fill="#cfe6ff" opacity="0.5"/><circle cx="70" cy="14" r="0.6" fill="#cfe6ff" opacity="0.5"/><circle class="cst-star" style="animation-delay:0s" cx="50" cy="9" r="1" fill="#cfe6ff" opacity="0.5"/><g filter="url(#glow_T)" fill="none" stroke="url(#arc_T)" stroke-linecap="round"><path d="M 22 86 A 32 32 0 0 1 78 86" stroke-width="2.6" opacity="0.95"/><path d="M 30 88 A 24 24 0 0 1 70 88" stroke-width="1.82" stroke="#e8941c" opacity="0.5"/></g><g filter="url(#glow_T)"><circle cx="50" cy="91" r="2.4" fill="#f2b65a"/></g><g class="cst-float"><animateTransform attributeName="transform" type="translate" values="0 0;0 -3.5;0 0" dur="5s" repeatCount="indefinite"/><g class="cst-orbit" style="transform-origin:50px 38px"><animateTransform attributeName="transform" type="rotate" values="0 50 38;360 50 38" dur="18s" repeatCount="indefinite"/><circle cx="50" cy="19" r="2.2" fill="#5ec8d8" opacity="0.95"/></g><circle class="cst-pulse" cx="50" cy="38" r="30" fill="url(#halo_T)" style="transform-origin:50px 38px"/><g filter="url(#glow_T)"><circle cx="50" cy="38" r="15" fill="url(#orb_T)" stroke="#f2b65a" stroke-opacity="0.6" stroke-width="0.7"/><ellipse cx="50" cy="38" rx="6.3" ry="15" fill="none" stroke="#fff7e6" stroke-opacity="0.3" stroke-width="0.6"/><path d="M 35 38 A 15 5.1 0 0 0 65 38" fill="none" stroke="#fff7e6" stroke-opacity="0.22" stroke-width="0.6"/><circle cx="44.9" cy="32.6" r="4.5" fill="#fffaf0" opacity="0.85"/></g></g></g><rect x="0.6" y="0.6" width="98.8" height="98.8" rx="23.5" ry="23.5" fill="none" stroke="#e8941c" stroke-opacity="0.38" stroke-width="0.8"/></svg>